<svg width="60" height="61" viewBox="0 0 60 61" fill="none" xmlns="http://www.w3.org/2000/svg">
<path d="M37.5 42.6963H50L46.4877 39.184C45.5351 38.2314 45 36.9395 45 35.5924V27.6963C45 21.1652 40.826 15.609 35 13.5498V12.6963C35 9.93487 32.7614 7.69629 30 7.69629C27.2386 7.69629 25 9.93487 25 12.6963V13.5498C19.174 15.609 15 21.1652 15 27.6963V35.5924C15 36.9395 14.4649 38.2314 13.5123 39.184L10 42.6963H22.5M37.5 42.6963V45.1963C37.5 49.3384 34.1421 52.6963 30 52.6963C25.8579 52.6963 22.5 49.3384 22.5 45.1963V42.6963M37.5 42.6963H22.5" stroke="#121212" stroke-width="3" stroke-linecap="round" stroke-linejoin="round"/>
</svg>
