<svg width="60" height="61" viewBox="0 0 60 61" fill="none" xmlns="http://www.w3.org/2000/svg">
<path d="M24.1587 42.6963H35.8411M29.9999 7.69629V10.1963M45.9098 14.2864L44.142 16.0542M52.5 30.1962H50M10 30.1962H7.5M15.8577 16.0542L14.09 14.2864M21.161 39.0352C16.2795 34.1536 16.2795 26.2391 21.161 21.3575C26.0426 16.476 33.9571 16.476 38.8387 21.3575C43.7203 26.2391 43.7203 34.1536 38.8387 39.0352L37.471 40.4029C35.8887 41.9851 34.9999 44.1311 34.9999 46.3687V47.6963C34.9999 50.4577 32.7613 52.6963 29.9999 52.6963C27.2384 52.6963 24.9999 50.4577 24.9999 47.6963V46.3687C24.9999 44.1311 24.111 41.9851 22.5288 40.4029L21.161 39.0352Z" stroke="#121212" stroke-width="3" stroke-linecap="round" stroke-linejoin="round"/>
</svg>
