<svg width="60" height="60" viewBox="0 0 60 60" fill="none" xmlns="http://www.w3.org/2000/svg">
<circle cx="30" cy="30" r="30" fill="#121212"/>
<path d="M33.2395 25.8581C33.7825 26.4838 34.7298 26.5509 35.3555 26.008C35.9813 25.465 36.0484 24.5176 35.5054 23.8919L33.2395 25.8581ZM25.7605 35.1419C25.2176 34.5162 24.2702 34.4491 23.6445 34.992C23.0188 35.535 22.9517 36.4824 23.4946 37.1081L25.7605 35.1419ZM31 21.125C31 20.2966 30.3284 19.625 29.5 19.625C28.6716 19.625 28 20.2966 28 21.125H31ZM28 39.875C28 40.7034 28.6715 41.375 29.5 41.375C30.3284 41.375 31 40.7035 31 39.875L28 39.875ZM44.875 30.5C44.875 38.9914 37.9914 45.875 29.5 45.875V48.875C39.6482 48.875 47.875 40.6482 47.875 30.5H44.875ZM29.5 45.875C21.0086 45.875 14.125 38.9914 14.125 30.5H11.125C11.125 40.6482 19.3518 48.875 29.5 48.875V45.875ZM14.125 30.5C14.125 22.0086 21.0086 15.125 29.5 15.125V12.125C19.3518 12.125 11.125 20.3518 11.125 30.5H14.125ZM29.5 15.125C37.9914 15.125 44.875 22.0086 44.875 30.5H47.875C47.875 20.3518 39.6482 12.125 29.5 12.125V15.125ZM29.5 29C28.2015 29 27.0938 28.6464 26.3546 28.1536C25.6048 27.6537 25.375 27.128 25.375 26.75H22.375C22.375 28.4431 23.4044 29.7923 24.6905 30.6497C25.9871 31.5141 27.6919 32 29.5 32V29ZM25.375 26.75C25.375 26.372 25.6048 25.8463 26.3546 25.3464C27.0938 24.8536 28.2015 24.5 29.5 24.5V21.5C27.6919 21.5 25.9871 21.9859 24.6905 22.8503C23.4044 23.7077 22.375 25.0569 22.375 26.75H25.375ZM29.5 24.5C31.2721 24.5 32.6245 25.1493 33.2395 25.8581L35.5054 23.8919C34.1753 22.359 31.892 21.5 29.5 21.5V24.5ZM29.5 32C30.7985 32 31.9062 32.3536 32.6455 32.8464C33.3952 33.3463 33.625 33.872 33.625 34.25H36.625C36.625 32.5569 35.5956 31.2077 34.3095 30.3503C33.0129 29.4859 31.3081 29 29.5 29V32ZM28 21.125V23H31V21.125H28ZM28 38L28 39.875L31 39.875L31 38L28 38ZM29.5 36.5C27.728 36.5 26.3755 35.8507 25.7605 35.1419L23.4946 37.1081C24.8248 38.641 27.108 39.5 29.5 39.5L29.5 36.5ZM33.625 34.25C33.625 34.628 33.3952 35.1537 32.6455 35.6536C31.9062 36.1464 30.7985 36.5 29.5 36.5V39.5C31.3082 39.5 33.013 39.0141 34.3096 38.1497C35.5957 37.2923 36.625 35.9431 36.625 34.25H33.625ZM28 23L28 38L31 38L31 23L28 23Z" fill="white"/>
</svg>
