<svg width="60" height="60" viewBox="0 0 60 60" fill="none" xmlns="http://www.w3.org/2000/svg">
<path d="M52.5 33.1386C45.5518 35.9512 37.9568 37.5 30 37.5C22.0433 37.5 14.4482 35.9512 7.5 33.1386M40 15V10C40 7.23858 37.7614 5 35 5H25C22.2386 5 20 7.23858 20 10V15M30 30H30.025M12.5 50H47.5C50.2614 50 52.5 47.7614 52.5 45V20C52.5 17.2386 50.2614 15 47.5 15H12.5C9.73858 15 7.5 17.2386 7.5 20V45C7.5 47.7614 9.73858 50 12.5 50Z" stroke="white" stroke-width="2" stroke-linecap="round" stroke-linejoin="round"/>
</svg>
