<svg width="60" height="60" viewBox="0 0 60 60" fill="none" xmlns="http://www.w3.org/2000/svg">
<path d="M27.5 14.7055V48.1004C27.5 50.5303 25.5303 52.5 23.1004 52.5C21.2411 52.5 19.5826 51.3312 18.9572 49.5802L13.5912 34.2072M45 32.5C49.1421 32.5 52.5 29.1421 52.5 25C52.5 20.8579 49.1421 17.5 45 17.5M13.5912 34.2072C10.0107 32.6852 7.5 29.1358 7.5 25C7.5 19.4771 11.9771 15 17.5 15H22.0802C32.3318 15 41.1422 11.9148 45 7.5L45 42.5C41.1422 38.0852 32.3318 35 22.0802 35L17.4999 35C16.113 35 14.7919 34.7176 13.5912 34.2072Z" stroke="white" stroke-width="2" stroke-linecap="round" stroke-linejoin="round"/>
</svg>
