<svg width="69" height="60" viewBox="0 0 69 60" fill="none" xmlns="http://www.w3.org/2000/svg">
<path d="M13.5714 6.29425e-05C13.5714 5.30438 15.6786 10.3914 19.4293 14.1422C23.18 17.8929 28.267 20 33.5714 20C38.8757 20 43.9627 17.8929 47.7134 14.1422C51.4642 10.3914 53.5713 5.30438 53.5713 6.48499e-05L13.5714 6.29425e-05Z" fill="#1AE5BE"/>
<path d="M10.7492 49.2509C4.74304 43.2447 1.26926 35.1795 1.01508 26.7144L67.5563 26.7144C67.3021 35.1795 63.8283 43.2447 57.8222 49.2509C51.5799 55.4931 43.1136 59 34.2857 59C25.4578 59 16.9915 55.4931 10.7492 49.2509Z" fill="white" stroke="#121212" stroke-width="2"/>
</svg>
