<svg width="78" height="60" viewBox="0 0 78 60" fill="none" xmlns="http://www.w3.org/2000/svg">
<path d="M40 20C40 14.6957 37.8929 9.60859 34.1421 5.85786C30.3914 2.10714 25.3043 4.00466e-07 20 0C14.6957 -4.00466e-07 9.60859 2.10714 5.85787 5.85786C2.10714 9.60859 8.00931e-07 14.6957 0 20L40 20Z" fill="#1AE5BE"/>
<path d="M19.3203 49.2508C13.3141 43.2446 9.84033 35.1794 9.58616 26.7143L76.1276 26.7143C75.8734 35.1794 72.3996 43.2447 66.3934 49.2508C60.1511 55.4931 51.6848 59 42.8569 59C34.0289 59 25.5626 55.4931 19.3203 49.2508Z" fill="white" stroke="#121212" stroke-width="2"/>
</svg>
