<svg width="60" height="60" viewBox="0 0 60 60" fill="none" xmlns="http://www.w3.org/2000/svg">
<path d="M21.7097 33.3548C22.2154 32.3454 22.5 31.2059 22.5 30C22.5 28.7941 22.2154 27.6546 21.7097 26.6452M21.7097 33.3548C20.4783 35.8127 17.9362 37.5 15 37.5C10.8579 37.5 7.5 34.1421 7.5 30C7.5 25.8579 10.8579 22.5 15 22.5C17.9362 22.5 20.4783 24.1873 21.7097 26.6452M21.7097 33.3548L38.2903 41.6452M21.7097 26.6452L38.2903 18.3548M38.2903 18.3548C39.5217 20.8127 42.0638 22.5 45 22.5C49.1421 22.5 52.5 19.1421 52.5 15C52.5 10.8579 49.1421 7.5 45 7.5C40.8579 7.5 37.5 10.8579 37.5 15C37.5 16.2059 37.7846 17.3454 38.2903 18.3548ZM38.2903 41.6452C37.7846 42.6546 37.5 43.7941 37.5 45C37.5 49.1421 40.8579 52.5 45 52.5C49.1421 52.5 52.5 49.1421 52.5 45C52.5 40.8579 49.1421 37.5 45 37.5C42.0638 37.5 39.5217 39.1873 38.2903 41.6452Z" stroke="white" stroke-width="3" stroke-linecap="round" stroke-linejoin="round"/>
</svg>
