<svg width="146" height="24" viewBox="0 0 146 24" fill="none" xmlns="http://www.w3.org/2000/svg">
<path d="M25.2474 9.1713H15.6018L12.6325 0L9.64568 9.1713L0 9.15373L7.80088 14.8287L4.81405 24L12.6149 18.325L20.4158 24L17.4466 14.8287L25.2474 9.1713Z" fill="#14B082"/>
<path d="M18.116 16.9004L17.4483 14.8271L12.6343 18.3235L18.116 16.9004Z" fill="#162D3C"/>
<path d="M55.2943 9.1713H45.6486L42.6794 0L39.6926 9.1713L30.0469 9.15373L37.8478 14.8287L34.8609 24L42.6618 18.325L50.4627 24L47.4934 14.8287L55.2943 9.1713Z" fill="#14B082"/>
<path d="M48.1628 16.9004L47.4952 14.8271L42.6812 18.3235L48.1628 16.9004Z" fill="#162D3C"/>
<path d="M85.3412 9.1713H75.6955L72.7262 0L69.7394 9.1713L60.0938 9.15373L67.8946 14.8287L64.9078 24L72.7087 18.325L80.5096 24L77.5403 14.8287L85.3412 9.1713Z" fill="#14B082"/>
<path d="M78.2097 16.9004L77.5421 14.8271L72.728 18.3235L78.2097 16.9004Z" fill="#162D3C"/>
<path d="M115.388 9.1713H105.742L102.773 0L99.7863 9.1713L90.1406 9.15373L97.9415 14.8287L94.9547 24L102.756 18.325L110.556 24L107.587 14.8287L115.388 9.1713Z" fill="#14B082"/>
<path d="M108.257 16.9004L107.589 14.8271L102.775 18.3235L108.257 16.9004Z" fill="#162D3C"/>
<path d="M145.435 9.1713H135.789L132.82 0L129.833 9.1713L120.188 9.15373L127.988 14.8287L125.002 24L132.802 18.325L140.603 24L137.634 14.8287L145.435 9.1713Z" fill="#14B082"/>
<path d="M138.303 16.9004L137.636 14.8271L132.822 18.3235L138.303 16.9004Z" fill="#162D3C"/>
</svg>
